Coordinates
version=1
nRows=9
nColumns=63
inDegrees=yes

Units are S.I. units (second, meters, Newtons, ...)
If the header above contains a line with 'inDegrees', this indicates whether rotational values are in degrees (yes) or radians (no).

endheader
time	pelvis_tilt	pelvis_list	pelvis_rotation	pelvis_tx	pelvis_ty	pelvis_tz	hip_flexion_r	hip_adduction_r	hip_rotation_r	knee_angle_r	knee_angle_r_beta	ankle_angle_r	subtalar_angle_r	mtp_angle_r	hip_flexion_l	hip_adduction_l	hip_rotation_l	knee_angle_l	knee_angle_l_beta	ankle_angle_l	subtalar_angle_l	mtp_angle_l	L5_S1_Flex_Ext	L5_S1_Lat_Bending	L5_S1_axial_rotation	L4_L5_Flex_Ext	L4_L5_Lat_Bending	L4_L5_axial_rotation	L3_L4_Flex_Ext	L3_L4_Lat_Bending	L3_L4_axial_rotation	L2_L3_Flex_Ext	L2_L3_Lat_Bending	L2_L3_axial_rotation	L1_L2_Flex_Ext	L1_L2_Lat_Bending	L1_L2_axial_rotation	L1_T12_Flex_Ext	L1_T12_Lat_Bending	L1_T12_axial_rotation	Abs_r3	Abs_r2	Abs_r1	Abs_t1	Abs_t2	neck_flexion	neck_bending	neck_rotation	arm_flex_r	arm_add_r	arm_rot_r	elbow_flex_r	pro_sup_r	wrist_flex_r	wrist_dev_r	arm_flex_l	arm_add_l	arm_rot_l	elbow_flex_l	pro_sup_l	wrist_flex_l	wrist_dev_l
      1.16949153	     -1.57932414	    -24.65944799	     73.35223988	      0.30263788	      0.89323254	      0.71779728	     35.53432233	      4.41441421	      1.51796674	     25.47406953	      0.44460639	     40.35377619	      8.96038319	      0.00000000	     30.02435484	     -5.95683422	      1.61906175	     20.79356682	      0.36291620	     36.96895134	    -11.16990284	      0.00000000	     -0.06425250	     -2.31081055	     -3.39075427	     -0.11932332	     -3.07337803	     -3.60267641	     -0.10556043	     -5.61850476	     -3.60267641	     -0.07343418	     -5.61850476	     -2.96690998	     -0.05966487	     -4.71220487	     -2.75498784	     -0.03671388	     -3.57944554	     -2.54306570	     -0.45894918	    -26.14035107	    -18.85835800	      0.00000000	      0.00000000	     18.79202940	      1.56698433	    -19.51254434	   -149.56259874	    -63.21286554	   -180.15280613	     26.96596376	     42.08643413	     -1.63262286	     10.90020960	     29.10404088	    -34.57207299	    116.07849457	      1.86618734	     23.12690613	     -3.35522741	      5.26893032
      1.18644068	     -1.79410645	    -24.82831857	     73.58083539	      0.30502639	      0.89369423	      0.71874781	     35.77496537	      4.34943378	      2.15682902	     25.53526183	      0.44567439	     40.12535277	      8.96201988	      0.00000000	     29.84403595	     -5.76645466	      1.59278515	     19.89975408	      0.34731623	     36.46961877	    -11.40189362	      0.00000000	     -0.07874929	     -2.40325160	     -3.50501807	     -0.14624532	     -3.19632463	     -3.72408170	     -0.12937722	     -5.84326595	     -3.72408170	     -0.09000257	     -5.84326595	     -3.06689081	     -0.07312660	     -4.90071067	     -2.84782718	     -0.04499735	     -3.72263673	     -2.62876356	     -0.56249834	    -27.18606277	    -19.49385902	      0.00000000	      0.00000000	     18.90463433	      3.54894826	    -19.02740999	   -160.02579641	    -62.17467194	   -190.98107421	     24.84808367	     22.44824419	     -0.64672825	      9.91764189	     23.46384542	    -35.60345410	    109.08585103	      3.16826217	     27.24036553	     -6.13607150	      3.22172309
      1.20338983	     -2.01811960	    -25.00171857	     74.08940250	      0.30668042	      0.89388388	      0.71973274	     36.00421067	      4.15675086	      2.93265181	     25.54356086	      0.44581924	     39.98497878	      8.68469480	      0.00000000	     29.79430076	     -5.42066271	      1.73421993	     19.05237487	      0.33252667	     36.08975579	    -11.57851390	      0.00000000	     -0.09731998	     -2.47466583	     -3.64949898	     -0.18073293	     -3.29130556	     -3.87759266	     -0.15988699	     -6.01690251	     -3.87759266	     -0.11122700	     -6.01690251	     -3.19331160	     -0.09037133	     -5.04633857	     -2.96521792	     -0.05560863	     -3.83325738	     -2.73712423	     -0.69514686	    -27.99391484	    -20.29741845	      0.00000000	      0.00000000	     19.05562756	      5.42352642	    -17.59379583	   -168.29594124	    -60.14276559	   -201.29768550	     23.21937458	     18.78451965	      0.24073754	      8.58462911	     17.85750383	    -36.17916818	    107.60496366	      4.19116642	     26.87471945	     -9.19154680	      1.54423143
      1.22033898	     -2.46929313	    -24.88724322	     74.20595863	      0.30827296	      0.89445810	      0.72048169	     35.98744703	      3.75398073	      3.54852155	     25.56955395	      0.44627290	     39.89248109	      9.03175486	      0.00000000	     29.32770533	     -4.86603553	      1.87098720	     17.95469785	      0.31336859	     35.60639933	    -12.29530960	      0.00000000	     -0.13014650	     -2.56373512	     -3.67154741	     -0.24169506	     -3.40976771	     -3.90101912	     -0.21381768	     -6.23346558	     -3.90101912	     -0.14874443	     -6.23346558	     -3.21260398	     -0.12085404	     -5.22796866	     -2.98313227	     -0.07436571	     -3.97122570	     -2.75366056	     -0.92962342	    -29.00148445	    -20.42004523	      0.00000000	      0.00000000	     18.88117663	      6.89595915	    -16.03313613	   -175.28558065	    -58.95121987	   -220.47207764	     23.10428061	     34.17351583	     -0.32561654	      9.43678018	     12.30796617	    -36.07471384	    106.28399883	      4.24442041	     25.82404818	    -11.07745434	     -0.99776996
      1.23728814	     -2.86955099	    -24.86755828	     74.41336736	      0.30936579	      0.89441247	      0.72101616	     36.04076882	      3.36087719	      4.12175034	     25.62585866	      0.44725561	     39.90030824	      9.15163364	      0.00000000	     28.99067062	     -4.31528116	      2.05820809	     16.92385338	      0.29537696	     35.21645616	    -12.95364656	      0.00000000	     -0.15840188	     -2.61590048	     -3.55587537	     -0.29416813	     -3.47914764	     -3.77811758	     -0.26023845	     -6.36030043	     -3.77811758	     -0.18103751	     -6.36030043	     -3.11139095	     -0.14709199	     -5.33434426	     -2.88914874	     -0.09051083	     -4.05202985	     -2.66690653	     -1.13144879	    -29.59158943	    -19.77671203	      0.00000000	      0.00000000	     18.36255798	      8.02903988	    -14.38489600	   -178.68809098	    -54.91746256	   -221.37480176	     22.16003530	     37.41706574	      0.13246516	      5.18674748	      7.20270866	    -34.98356916	    104.64305953	      3.60422972	     22.78889293	    -12.15316488	     -4.02148278
      1.25423729	     -3.40752381	    -24.89762751	     74.71709939	      0.31071100	      0.89442274	      0.72034570	     35.98739379	      2.78343023	      4.52274215	     25.49062937	      0.44489541	     39.97041474	      9.15575316	      0.00000000	     28.60602531	     -3.57204199	      2.45914699	     15.76170251	      0.27509360	     34.68592140	    -13.84691855	      0.00000000	     -0.16630683	     -2.67910326	     -3.31173534	     -0.30884841	     -3.56320733	     -3.51871880	     -0.27322548	     -6.51397166	     -3.51871880	     -0.19007207	     -6.51397166	     -2.89776842	     -0.15443252	     -5.46322737	     -2.69078497	     -0.09502772	     -4.14993095	     -2.48380151	     -1.18791303	    -30.30655188	    -18.41887845	      0.00000000	      0.00000000	     17.25214492	      9.20747931	    -13.64966789	   -182.82506380	    -53.05065280	   -237.76081432	     23.21345769	     68.57013944	     -2.16573647	      4.46377761	      2.65543732	    -33.45640267	    109.17384537	      2.25489691	     15.05898636	    -12.05048812	     -6.46426709
      1.27118644	     -3.88299103	    -25.14754287	     75.12594142	      0.31197588	      0.89338283	      0.71966671	     36.21968249	      2.29438622	      4.82747945	     25.53330274	      0.44564020	     40.14544596	      8.75366950	      0.00000000	     28.49046201	     -2.93139819	      2.77152966	     14.70976108	      0.25673376	     34.43325638	    -14.40138135	      0.00000000	     -0.16171127	     -2.72012759	     -2.91699747	     -0.30031399	     -3.61776970	     -3.09930981	     -0.26567544	     -6.61371823	     -3.09930981	     -0.18481981	     -6.61371823	     -2.55237279	     -0.15016508	     -5.54688419	     -2.37006045	     -0.09240182	     -4.21347764	     -2.18774810	     -1.15508740	    -30.77062737	    -16.22346484	      0.00000000	      0.00000000	     16.26137710	     10.58192303	    -13.72050152	   -183.75069528	    -49.38321120	   -234.85300839	     23.10104298	     74.52405095	     -5.56762524	      2.04300144	     -1.19314105	    -31.89501888	    108.46057140	      1.66804856	     14.49318427	    -12.13235193	     -8.21603353
      1.28813559	     -4.21831013	    -25.60349729	     75.92970290	      0.31319889	      0.89146541	      0.71908762	     36.64426431	      1.77620500	      4.66451705	     25.59373705	      0.44669498	     40.59871780	      8.36669769	      0.00000000	     28.72671029	     -2.39919480	      3.06398759	     13.92497795	      0.24303671	     34.62524025	    -14.13442829	      0.00000000	     -0.16965145	     -2.75168967	     -2.46928640	     -0.31505971	     -3.65974726	     -2.62361680	     -0.27872037	     -6.69045825	     -2.62361680	     -0.19389464	     -6.69045825	     -2.16062560	     -0.15753834	     -5.61124557	     -2.00629520	     -0.09693884	     -4.26236729	     -1.85196480	     -1.21180334	    -31.12766384	    -13.73343016	      0.00000000	      0.00000000	     16.14451295	     12.21170443	    -15.14734435	   -184.64577459	    -46.89201290	   -234.76328162	     23.52246863	     74.91959255	     -6.01330570	      2.13661589	     -4.47271909	    -30.67116845	    108.75470961	      1.50333261	     14.85677845	    -12.03835854	     -8.34828714
      1.30508475	     -5.47375613	    -26.20425520	     75.55079907	      0.31580653	      0.88921876	      0.71900039	     37.68551437	      1.14349573	      5.77633218	     25.93758078	      0.45269618	     40.89148238	      7.76660882	      0.00000000	     29.01393281	     -1.47448159	      2.79450766	     12.69977266	      0.22165285	     34.15482593	    -15.06339349	      0.00000000	     -0.11841039	     -2.90991937	     -1.74857155	     -0.21989993	     -3.87019277	     -1.85785728	     -0.19453642	     -7.07517796	     -1.85785728	     -0.13533123	     -7.07517796	     -1.53000011	     -0.10995588	     -5.93390759	     -1.42071439	     -0.06765969	     -4.50746511	     -1.31142867	     -0.84579354	    -32.91758993	     -9.72503042	      0.00000000	      0.00000000	     16.89625830	     14.43577190	    -19.34116753	   -184.95491118	    -46.21533566	   -234.35597275	     24.81029814	     77.04936061	     -8.38904450	      2.13907559	     -7.34191701	    -30.56690109	    108.92671204	      1.46218092	     16.42191851	    -11.50923304	     -8.44029215
